#!OML:ASF E:\basketball\basketball\Project 1\Capture day 1\Session 1\Subject.ASF
:FULLY-SPECIFIED
:DEGREES
257
root 20.4643 14.5132 -3.50429 -138.168 55.958 -145.267
lowerback 17.2643 0.908673 8.54196
upperback 7.89529 3.75254 7.00756
thorax -1.16159 2.35849 1.94234
lowerneck -8.2335 -2.08499 -5.93522
upperneck -11.4605 -1.3371 7.15963
head -2.17197 -0.293632 3.38666
rclavicle 2.13694e-014 -5.56597e-015
rhumerus 21.9202 20.7464 -85.3032
rradius 46.9282
rwrist 24.2321
rhand -10.0267 15.7415
rfingers 7.12502
rthumb 15.9579 -13.6211
lclavicle 2.13694e-014 -5.56597e-015
lhumerus -57.858 -13.1935 101.429
lradius 70.0496
lwrist 23.4316
lhand -28.1385 32.6657
lfingers 7.12502
lthumb -1.51965 62.64
rfemur -7.02651 -5.89973 21.3814
rtibia 33.8428
rfoot -17.8466 -5.79857
rtoes -51.3254
lfemur -47.0054 18.0342 -16.6275
ltibia 112.436
lfoot -8.45967 -4.60343
ltoes -0.821063
258
root 20.9048 14.5939 -3.75434 -139.118 55.4511 -145.921
lowerback 17.2821 1.44795 8.66527
upperback 7.86372 4.45647 6.67318
thorax -1.15049 2.70926 1.39504
lowerneck -7.92895 -3.00648 -6.61428
upperneck -11.2164 -2.50322 8.43734
head -2.037 -0.881713 3.95112
rclavicle -3.15074e-014 1.0138e-014
rhumerus 21.8716 21.0145 -84.6005
rradius 41.1604
rwrist 21.4734
rhand -7.64277 14.224
rfingers 7.12502
rthumb 18.2525 -14.9396
lclavicle -3.15074e-014 1.0138e-014
lhumerus -56.4462 -14.0427 100.667
lradius 72.3098
lwrist 22.8619
lhand -27.4334 31.1514
lfingers 7.12502
lthumb -0.838724 61.1295
rfemur -3.04396 -5.73367 21.0508
rtibia 30.6098
rfoot -15.5836 -3.32001
rtoes -50.5811
lfemur -50.03 17.2621 -16.8391
ltibia 109.851
lfoot -8.88143 -3.81815
ltoes -1.12777
259
root 21.3524 14.6774 -4.01206 -140.214 54.8985 -146.707
lowerback 17.3253 1.94987 8.77191
upperback 7.84136 5.109 6.29468
thorax -1.12891 3.03483 0.822152
lowerneck -7.58169 -3.91942 -7.18363
upperneck -11.2537 -3.6177 10.0477
head -1.74091 -1.47269 4.18635
rclavicle -8.74653e-014 -8.97513e-014
rhumerus 21.4358 20.9362 -84.3387
rradius 35.9447
rwrist 18.2274
rhand -4.85944 12.453
rfingers 7.12502
rthumb 20.9285 -16.438
lclavicle -8.74653e-014 -8.97513e-014
lhumerus -54.4979 -15.0821 99.9418
lradius 74.2768
lwrist 22.1461
lhand -26.7774 29.6357
lfingers 7.12502
lthumb -0.205059 59.6154
rfemur 1.15828 -5.50272 20.7162
rtibia 27.0194
rfoot -12.6531 -0.968088
rtoes -49.5478
lfemur -52.5428 16.403 -16.9183
ltibia 106.598
lfoot -9.29983 -3.05857
ltoes -1.76151
260
root 21.8071 14.7602 -4.27437 -141.387 54.2996 -147.601
lowerback 17.3587 2.4381 8.82577
upperback 7.81008 5.73119 5.88602
thorax -1.10266 3.34356 0.255367
lowerneck -7.12524 -4.83274 -7.67331
upperneck -11.2546 -4.77476 11.4647
head -1.64664 -2.0706 4.68521
rclavicle -4.47266e-015 -1.29608e-013
rhumerus 20.5314 20.144 -84.6773
rradius 31.3732
rwrist 15.3818
rhand -2.01326 10.7342
rfingers 7.12502
rthumb 23.6607 -17.8298
lclavicle -4.47266e-015 -1.29608e-013
lhumerus -52.0648 -16.3096 99.2407
lradius 75.9293
lwrist 21.2621
lhand -26.1646 28.1916
lfingers 7.12502
lthumb 0.386768 58.171
rfemur 5.54307 -5.13886 20.4393
rtibia 23.0608
rfoot -9.12953 0.933155
rtoes -48.1634
lfemur -54.6219 15.5324 -16.8835
ltibia 102.76
lfoot -9.64932 -2.42571
ltoes -2.78325
261
root 22.2687 14.8392 -4.53895 -142.574 53.6471 -148.572
lowerback 17.3536 2.92651 8.81066
upperback 7.75382 6.33547 5.45932
thorax -1.07807 3.64005 -0.284732
lowerneck -6.5831 -5.75252 -8.10279
upperneck -11.3801 -5.93645 12.9649
head -1.57613 -2.67797 5.20116
rclavicle -2.74323e-014 -2.73329e-014
rhumerus 19.1563 18.1997 -85.7255
rradius 27.4566
rwrist 14.0291
rhand 0.489207 9.44281
rfingers 7.12502
rthumb 26.0589 -18.7898
lclavicle -2.74323e-014 -2.73329e-014
lhumerus -49.2193 -17.7063 98.5407
lradius 77.2646
lwrist 20.2111
lhand -25.595 26.8913
lfingers 7.12502
lthumb 0.936913 56.869
rfemur 10.1003 -4.59568 20.2958
rtibia 18.7018
rfoot -5.17476 2.04687
rtoes -46.3897
lfemur -56.3448 14.7049 -16.7597
ltibia 98.4145
lfoot -9.87749 -1.97741
ltoes -4.27783
262
root 22.7367 14.9112 -4.80438 -143.723 52.9248 -149.59
lowerback 17.2891 3.41397 8.73098
upperback 7.66221 6.91919 5.02295
thorax -1.05815 3.92234 -0.789939
lowerneck -5.95653 -6.67456 -8.49934
upperneck -11.6223 -7.09207 14.5629
head -1.52525 -3.29071 5.74488
rclavicle 3.53837e-014 6.36111e-015
rhumerus 17.4263 14.7309 -87.4476
rradius 24.1642
rwrist 15.1065
rhand 2.27768 8.92635
rfingers 7.12502
rthumb 27.7701 -19.0423
lclavicle 3.53837e-014 6.36111e-015
lhumerus -46.0402 -19.2344 97.8135
lradius 78.2929
lwrist 19.0197
lhand -25.0805 25.7919
lfingers 7.12502
lthumb 1.43384 55.7669
rfemur 14.8922 -3.87217 20.3588
rtibia 13.8074
rfoot -1.07092 2.08462
rtoes -45.5711
lfemur -57.7764 13.9471 -16.5739
ltibia 93.6425
lfoot -9.94981 -1.73355
ltoes -6.27369
263
root 23.2099 14.9738 -5.07038 -144.807 52.1132 -150.635
lowerback 17.1481 3.88511 8.603
upperback 7.53478 7.46381 4.58241
thorax -1.03661 4.18191 -1.25828
lowerneck -5.24461 -7.5832 -8.88388
upperneck -11.9802 -8.21617 16.2535
head -1.49471 -3.89749 6.32122
rclavicle -5.36719e-015 -2.98177e-016
rhumerus 15.5461 9.65436 -89.6108
rradius 21.4951
rwrist 18.9681
rhand 3.02961 9.33696
rfingers 7.12502
rthumb 28.4888 -18.5136
lclavicle -5.36719e-015 -2.98177e-016
lhumerus -42.5972 -20.8343 97.0308
lradius 79.0274
lwrist 17.7354
lhand -24.6409 24.9123
lfingers 7.12502
lthumb 1.85843 54.884
rfemur 20.2878 -3.52064 20.4911
rtibia 7.70535
rfoot 3.18531 2.03877
rtoes -45.2753
lfemur -58.9615 13.2626 -16.3568
ltibia 88.5232
lfoot -9.83021 -1.69322
ltoes -8.70594
264
root 23.6869 15.0254 -5.33779 -145.822 51.1924 -151.7
lowerback 16.9185 4.31289 8.4482
upperback 7.38052 7.93757 4.14367
thorax -1.00002 4.40476 -1.68777
lowerneck -4.46053 -8.45334 -9.26518
upperneck -12.4486 -9.27206 18.0003
head -1.48679 -4.48062 6.92407
rclavicle -6.70898e-015 -2.46493e-014
rhumerus 13.697 3.32951 -91.8657
rradius 19.5079
rwrist 25.1673
rhand 2.56698 10.5307
rfingers 7.12502
rthumb 28.0467 -17.3931
lclavicle -6.70898e-015 -2.46493e-014
lhumerus -38.9462 -22.4204 96.1723
lradius 79.4788
lwrist 16.411
lhand -24.298 24.2341
lfingers 7.12502
lthumb 2.18955 54.2026
rfemur 26.5002 -3.26941 20.7
rtibia 0
rfoot 7.87492 1.95343
rtoes -45.2677
lfemur -59.9244 12.638 -16.1431
ltibia 83.1366
lfoot -9.4721 -1.85078
ltoes -11.3995
265
root 24.1657 15.0657 -5.60807 -146.762 50.1441 -152.774
lowerback 16.5957 4.66438 8.29204
upperback 7.21434 8.30331 3.71874
thorax -0.93347 4.57477 -2.07234
lowerneck -3.62756 -9.25757 -9.64482
upperneck -13.0166 -10.2221 19.7445
head -1.50501 -5.0207 7.53934
rclavicle -9.05961e-014 5.36222e-014
rhumerus 11.9471 -3.40547 -93.859
rradius 18.2476
rwrist 32.4593
rhand 0.923935 12.1341
rfingers 7.12502
rthumb 26.475 -16.0365
lclavicle -9.05961e-014 5.36222e-014
lhumerus -35.1364 -23.8803 95.237
lradius 79.6552
lwrist 15.0817
lhand -24.0637 23.7304
lfingers 7.12502
lthumb 2.41583 53.6965
rfemur 28.6465 -3.19395 21.0952
rtibia 0
rfoot 8.99788 0.237723
rtoes -45.2622
lfemur -60.6773 12.0552 -15.9608
ltibia 77.5681
lfoot -8.81615 -2.21274
ltoes -14.043
266
root 24.6435 15.0947 -5.88261 -147.624 48.956 -153.83
lowerback 16.1878 4.90706 8.16316
upperback 7.05375 8.52653 3.32675
thorax -0.826554 4.67711 -2.40301
lowerneck -2.79093 -9.97254 -10.0136
upperneck -13.6516 -11.0389 21.4056
head -1.54706 -5.50103 8.14197
rclavicle -5.4158e-014 2.01363e-014
rhumerus 10.2453 -9.51403 -95.3427
rradius 17.6605
rwrist 39.2611
rhand -1.64686 13.7558
rfingers 7.12502
rthumb 24.0121 -14.7622
lclavicle -5.4158e-014 2.01363e-014
lhumerus -31.2299 -25.0891 94.2476
lradius 79.5735
lwrist 13.7556
lhand -23.9359 23.3734
lfingers 7.12502
lthumb 2.53929 53.338
rfemur 30.7572 -3.2867 21.6591
rtibia -2.8625e-014
rfoot 10.0387 -1.6245
rtoes -45.0828
lfemur -61.2243 11.5016 -15.8338
ltibia 71.9152
lfoot -7.81144 -2.766
ltoes -16.5405
267
root 25.1176 15.112 -6.16209 -148.4 47.6268 -154.829
lowerback 15.7168 5.01614 8.08854
upperback 6.91599 8.58356 2.99251
thorax -0.67698 4.70181 -2.66893
lowerneck -1.99553 -10.5817 -10.3701
upperneck -14.3156 -11.7069 22.9173
head -1.60842 -5.90896 8.71011
rclavicle -1.3813e-013 -5.55106e-014
rhumerus 8.49202 -14.1701 -96.2168
rradius 17.6032
rwrist 44.266
rhand -4.779 15.1787
rfingers 7.12502
rthumb 21.0057 -13.7037
lclavicle -1.3813e-013 -5.55106e-014
lhumerus -27.3064 -25.9234 93.2538
lradius 79.2562
lwrist 12.4065
lhand -23.8978 23.1433
lfingers 7.12502
lthumb 2.57608 53.1075
rfemur 32.8244 -3.54232 22.407
rtibia -2.22639e-014
rfoot 11.0177 -3.39624
rtoes -44.7341
lfemur -61.5686 10.9754 -15.778
ltibia 66.2997
lfoot -6.4394 -3.48339
ltoes -18.8829
